<svg width="112" height="76" viewBox="0 0 112 76" fill="none" xmlns="http://www.w3.org/2000/svg">
<path d="M74 23C82 23 88.5 15.5 92.5 1" stroke="#FF9900" stroke-width="3"/>
<path d="M111.5 23C103.5 23 97 15.5 93 1" stroke="#FF9900" stroke-width="3"/>
<path d="M74.5 23C66.5 23 60 15.5 56 1" stroke="#FF9900" stroke-width="3"/>
<path d="M37 23C45 23 51.5 15.5 55.5 1" stroke="#FF9900" stroke-width="3"/>
<path d="M37.5 23C29.5 23 23 15.5 19 1" stroke="#FF9900" stroke-width="3"/>
<path d="M0 23C8 23 14.5 15.5 18.5 1" stroke="#FF9900" stroke-width="3"/>
<path d="M74 49C82 49 88.5 41.5 92.5 27" stroke="#FF9900" stroke-width="3"/>
<path d="M111.5 49C103.5 49 97 41.5 93 27" stroke="#FF9900" stroke-width="3"/>
<path d="M74.5 49C66.5 49 60 41.5 56 27" stroke="#FF9900" stroke-width="3"/>
<path d="M37 49C45 49 51.5 41.5 55.5 27" stroke="#FF9900" stroke-width="3"/>
<path d="M37.5 49C29.5 49 23 41.5 19 27" stroke="#FF9900" stroke-width="3"/>
<path d="M0 49C8 49 14.5 41.5 18.5 27" stroke="#FF9900" stroke-width="3"/>
<path d="M74 74C82 74 88.5 66.5 92.5 52" stroke="#FF9900" stroke-width="3"/>
<path d="M111.5 74C103.5 74 97 66.5 93 52" stroke="#FF9900" stroke-width="3"/>
<path d="M74.5 74C66.5 74 60 66.5 56 52" stroke="#FF9900" stroke-width="3"/>
<path d="M37 74C45 74 51.5 66.5 55.5 52" stroke="#FF9900" stroke-width="3"/>
<path d="M37.5 74C29.5 74 23 66.5 19 52" stroke="#FF9900" stroke-width="3"/>
<path d="M0 74C8 74 14.5 66.5 18.5 52" stroke="#FF9900" stroke-width="3"/>
</svg>
